<svg xmlns="http://www.w3.org/2000/svg" viewBox="0 0 319.97 177.16"><defs><style>.cls-1{fill:#a6c9c8;}.cls-2,.cls-6{fill:none;stroke:#fff;stroke-miterlimit:10;}.cls-2{stroke-linecap:round;stroke-width:2px;}.cls-3{fill:#8eb2af;}.cls-4{fill:#99c4c2;}.cls-5{fill:#fff;}.cls-7{fill:#a5cdcb;}</style></defs><title>Asset 1</title><g id="Layer_2" data-name="Layer 2"><g id="_2nd_Badge_Top" data-name="2nd Badge Top"><polygon class="cls-1" points="83.6 108.42 0 108.42 44.74 83.67 0 62.16 83.6 62.16 83.6 108.42"/><line class="cls-2" x1="20.48" y1="67.79" x2="74.54" y2="67.79"/><line class="cls-2" x1="20.48" y1="102.79" x2="74.54" y2="102.79"/><polygon class="cls-1" points="236.37 108.42 319.97 108.42 275.23 83.67 319.97 62.16 236.37 62.16 236.37 108.42"/><line class="cls-2" x1="299.49" y1="67.79" x2="245.43" y2="67.79"/><line class="cls-2" x1="299.49" y1="102.79" x2="245.43" y2="102.79"/><polygon class="cls-3" points="58.04 83.67 84.04 62.16 84.04 83.67 58.04 83.67"/><polygon class="cls-3" points="261.93 83.67 235.93 62.16 235.93 83.67 261.93 83.67"/><circle class="cls-4" cx="159.99" cy="88.58" r="88.58"/><path class="cls-5" d="M160,8.36A80.22,80.22,0,1,1,79.76,88.58,80.22,80.22,0,0,1,160,8.36m0-2a82.22,82.22,0,1,0,82.22,82.22A82.32,82.32,0,0,0,160,6.36Z"/><circle class="cls-6" cx="159.99" cy="88.58" r="73.45"/><rect class="cls-7" x="58.04" y="83.67" width="203.89" height="60"/><line class="cls-2" x1="66.32" y1="91.92" x2="253.65" y2="91.92"/><line class="cls-2" x1="66.32" y1="133.29" x2="253.65" y2="133.29"/><text></text></g></g></svg>