<svg xmlns="http://www.w3.org/2000/svg" viewBox="0 0 268.31 68.34"><defs><style>.cls-1{fill:#a6c9c8;}.cls-2{fill:none;stroke:#fff;stroke-linecap:round;stroke-miterlimit:10;stroke-width:2px;}.cls-3{fill:#8eb2af;}.cls-4{fill:#a5cdcb;}.cls-5{font-size:29px;fill:#f9f9fa;font-family:Roboto-Bold, Roboto;font-weight:700;}</style></defs><title>Asset 2ldpi</title><g id="Layer_2" data-name="Layer 2"><g id="_2nd_Badge_Top" data-name="2nd Badge Top"><polygon class="cls-1" points="70.1 38.78 0 38.78 37.52 18.03 0 0 70.1 0 70.1 38.78"/><line class="cls-2" x1="17.17" y1="4.71" x2="62.5" y2="4.71"/><line class="cls-2" x1="17.17" y1="34.06" x2="62.5" y2="34.06"/><polygon class="cls-1" points="198.21 38.78 268.31 38.78 230.79 18.03 268.31 0 198.21 0 198.21 38.78"/><line class="cls-2" x1="251.13" y1="4.71" x2="205.8" y2="4.71"/><line class="cls-2" x1="251.13" y1="34.06" x2="205.8" y2="34.06"/><polygon class="cls-3" points="48.67 18.03 70.47 0 70.47 18.03 48.67 18.03"/><polygon class="cls-3" points="219.64 18.03 197.84 0 197.84 18.03 219.64 18.03"/><text></text><rect class="cls-4" x="47.45" y="18.03" width="170.97" height="50.31"/><line class="cls-2" x1="54.39" y1="24.59" x2="211.48" y2="24.59"/><line class="cls-2" x1="54.39" y1="59.28" x2="211.48" y2="59.28"/><text class="cls-5" transform="translate(88.49 53.32)">D<tspan x="20.32" y="0">O</tspan><tspan x="41.78" y="0"> </tspan><tspan x="50.45" y="0">I</tspan><tspan x="60.34" y="0">T</tspan><tspan x="79.75" y="0">!</tspan></text></g></g></svg>